<?xml version="1.0" encoding="UTF-8"?>
<svg xmlns="http://www.w3.org/2000/svg"
     width="32" height="32" viewBox="0 0 32 32"
     role="img" aria-label="ECO token - lâmpada">
  <defs>
    <!-- Paleta baseada no PNG anexado -->
    <style>
      .green      { fill:#008001; }  /* verde principal */
      .green-mid  { fill:#5BAD5A; }  /* verde médio (folha) */
      .green-light{ fill:#83C182; }  /* verde claro (folha) */
      .stem       { fill:#007E00; }  /* caule */
    </style>
  </defs>

  <!-- Bulbo (corpo da lâmpada, silhueta verde) -->
  <path class="green" d="
    M16,4
    C11.2,4 8,7.7 8,11.1
    c0,2.9 1.6,5.1 3.2,6.5
    c0.8,0.7 1.4,1.6 1.4,2.6v0.7h6.8v-0.7
    c0-1,0.6-1.9,1.4-2.6
    C22.4,16.2 24,14 24,11.1
    C24,7.7 20.8,4 16,4z
  "/>

  <!-- Folhas internas (filamento “eco”) -->
  <ellipse class="green-light" cx="14.6" cy="11.8" rx="2.2" ry="3.0"/>
  <ellipse class="green-mid"   cx="17.4" cy="12.1" rx="2.2" ry="3.0"/>
  <rect class="stem" x="15.7" y="14.5" width="0.8" height="2.4" rx="0.3"/>

  <!-- Gargalo e soquete (estrias) -->
  <rect class="green" x="12.6" y="19.6" width="6.8" height="1.6" rx="0.6"/>
  <rect class="green" x="12.6" y="21.6" width="6.8" height="1.3" rx="0.5"/>
  <rect class="green" x="13.0" y="23.2" width="6.0" height="1.2" rx="0.5"/>
  <!-- Contato inferior -->
  <rect class="green" x="14.2" y="24.6" width="3.6" height="1.2" rx="0.5"/>
</svg>